<svg xmlns="http://www.w3.org/2000/svg" viewBox="0 0 100 100" role="img" aria-labelledby="title">
  <title id="title">津智助理</title>
  <defs>
    <linearGradient id="mark-bg" x1="20" y1="12" x2="82" y2="88" gradientUnits="userSpaceOnUse">
      <stop offset="0" stop-color="#163b66"/>
      <stop offset="0.64" stop-color="#255377"/>
      <stop offset="1" stop-color="#3f8a93"/>
    </linearGradient>
    <linearGradient id="mark-gold" x1="22" y1="20" x2="78" y2="82" gradientUnits="userSpaceOnUse">
      <stop offset="0" stop-color="#f5dda4"/>
      <stop offset="1" stop-color="#c18d41"/>
    </linearGradient>
  </defs>
  <rect width="100" height="100" rx="24" fill="#f8faf9"/>
  <path d="M50 12 80 25v22c0 20-12.7 34-30 42-17.3-8-30-22-30-42V25l30-13Z" fill="url(#mark-bg)"/>
  <path d="M29 31h42M35 46h30M43 25v42c0 8-4 13-12 16M58 25v42c0 8 4 13 12 16" stroke="url(#mark-gold)" stroke-width="6" stroke-linecap="round"/>
  <circle cx="50" cy="50" r="9" fill="#fffaf0"/>
  <path d="m50 36 3.2 8.8L62 48l-8.8 3.2L50 60l-3.2-8.8L38 48l8.8-3.2L50 36Z" fill="#c18d41"/>
</svg>
